<svg width="80" height="80" viewBox="0 0 80 80" fill="none" xmlns="http://www.w3.org/2000/svg">
<path d="M13 57.2933C12.2125 52.7683 8.86878 28.7434 8.44378 24.6684C7.93753 19.8184 9.95003 18.5934 11.6 18.2996C14.0438 17.8621 15.3875 20.7621 15.3875 20.7621L16.0813 20.5184C15.8875 19.4496 15.6875 17.9246 15.5063 16.4121C15.1563 13.5621 16.1938 11.6684 18.025 11.1184C19.475 10.6871 21.9625 10.4184 23.9125 15.5059C25.625 19.9871 30.7625 35.3433 30.9875 35.9434C31.2125 36.5434 31.7813 37.3246 32.5125 37.3246C33.3063 37.3246 33.4813 36.5183 33.5625 35.9558C33.6375 35.3933 36.2 16.3996 38.0063 8.89335C39.1938 3.95585 41.1813 2.1746 43.7563 2.55585C46.1125 2.90585 46.8688 4.13085 47.25 9.0246C47.25 9.0246 48.5063 6.7496 51.3563 7.50585C53.7 8.1246 54.6438 10.8809 54.6438 15.1871C54.6438 18.0496 54.0063 44.5621 54.025 45.4371C54.075 47.4871 55.2688 46.1558 55.2688 46.1558C58.9125 40.4621 64.9813 39.0684 67.575 38.9559C70.1813 38.8496 73.6188 40.2871 72.75 42.9934C72.2375 44.5809 67.5313 46.8308 64.4125 49.9496C61.7375 52.6246 58.475 57.3371 55.75 63.3683C53.45 68.4558 49.7563 76.9996 35.5563 77.2558C19.95 77.5246 14.5438 66.1558 13 57.2933Z" fill="#FFCA28"/>
<path d="M36.0754 58.1686C37.8817 52.3561 42.4567 48.4311 46.7254 46.6311C50.7254 44.9373 53.9879 44.4873 53.9879 44.4873C53.9879 45.9936 55.4504 45.9498 55.4504 45.9498C54.8129 47.0248 52.7754 47.5873 51.8879 47.8436C41.1504 50.9186 38.0067 58.1561 37.0504 61.1748C36.4442 63.0686 35.6442 65.8186 35.6442 65.8186C35.6442 65.8186 34.3754 63.6436 36.0754 58.1686Z" fill="#EDA600"/>
<path d="M18.1006 69.5747C18.4131 69.8747 26.9193 77.2872 38.9068 75.0747C48.8131 73.2497 52.2943 66.2747 54.3881 62.4309C56.4818 58.5934 58.4193 53.1184 62.8756 49.3871C65.3881 47.2809 68.1006 46.0122 69.6131 44.9997C72.3818 43.1434 72.8693 41.9872 72.8693 41.9872C72.8693 41.9872 73.3006 43.4247 70.3318 45.9372C68.2631 47.6872 64.6006 50.0809 62.8506 52.1872C59.9381 55.6809 58.5193 59.9872 53.7881 67.5684C49.8443 73.8934 44.7256 76.3059 38.8756 77.1747C23.9631 79.3872 18.1006 69.5747 18.1006 69.5747Z" fill="#EDA600"/>
<path d="M20.3318 42.3057C19.5443 42.4245 19.2443 42.2182 19.3631 41.7057C19.4818 41.1932 19.8256 39.812 19.6443 39.1682C18.4506 35.012 15.6568 25.2495 14.8756 22.437C13.8818 18.862 12.1631 18.262 12.1631 18.262C14.7068 17.8682 16.1193 20.1995 16.5131 21.4932C16.8006 22.4432 20.5693 33.7995 22.1131 38.4932C22.3443 39.1932 22.6756 39.5245 23.1568 39.8682C23.4318 40.062 23.6631 40.5432 23.0818 41.087C22.6443 41.5057 20.7631 42.2432 20.3318 42.3057Z" fill="#EDA600"/>
<path d="M42.801 39.0872C41.926 38.7872 41.2072 38.2559 41.5759 37.4997C41.7697 37.0997 42.3134 36.6059 42.3947 35.9622C43.1572 29.8747 45.5197 10.9434 45.726 7.49966C45.901 4.58716 44.6884 2.77466 44.6884 2.77466C44.6884 2.77466 47.4259 3.32466 47.2509 8.43091C47.1884 10.2934 45.6384 30.4184 45.1697 36.6622C45.1259 37.2559 45.8385 38.0184 45.7697 38.8497C45.7197 39.4684 44.726 39.7434 42.801 39.0872Z" fill="#EDA600"/>
<path d="M55.4565 45.9813L52.9565 46.3C52.9565 46.3 53.5315 16.3313 53.3815 12.425C53.2315 8.51875 51.344 7.5 51.344 7.5C51.344 7.5 54.894 7.5 55.3315 12.3563C55.5877 15.2313 55.4565 45.9813 55.4565 45.9813Z" fill="#EDA600"/>
</svg>
