<svg width="256" height="145" viewBox="0 0 256 145" fill="none" xmlns="http://www.w3.org/2000/svg">
<g clip-path="url(#clip0_699_2)">
<path d="M128.059 144.419C126.882 144.419 125.587 144.302 124.41 143.949L14.2418 117.348C6.00276 115.465 0 106.873 0 96.9857V44.2556C0 34.251 6.12046 25.5412 14.7126 23.7756L124.763 0.353103C125.823 0.117701 126.882 0 127.941 0C129 0 130.06 0.117701 131.119 0.353103L241.287 23.7756C249.762 25.5412 256 34.251 256 44.2556V96.9857C256 106.755 249.997 115.347 241.758 117.348L131.59 143.831C130.413 144.184 129.236 144.419 128.059 144.419Z" fill="black"/>
<path d="M128.059 127.823C127.47 127.823 126.882 127.706 126.293 127.588L16.1251 101.105C12.0055 100.046 8.94529 95.8087 8.94529 90.8653V38.1352C8.94529 33.074 12.0055 28.8368 16.2428 27.8952L126.411 4.47262C127 4.35492 127.47 4.35492 128.059 4.35492C128.647 4.35492 129.118 4.35492 129.707 4.47262L239.875 27.8952C244.112 28.8368 247.172 33.074 247.172 38.1352V90.8653C247.172 95.8087 244.23 100.046 239.993 101.105L129.824 127.588C129.236 127.706 128.647 127.823 128.059 127.823Z" fill="white"/>
<path d="M45.3039 63.4409L47.5402 58.3798H38.2418L31.886 72.9747C31.7683 73.2101 31.6506 73.3278 31.4152 73.3278H26.354C26.0009 73.3278 25.8832 73.0924 26.0009 72.7393L37.4179 46.8451C38.4772 44.3734 39.5366 42.6078 41.1844 41.4308C40.5959 41.3131 39.5366 41.0777 38.1241 40.6069C36.3586 40.0184 35.417 39.783 34.0046 39.783C30.1205 39.783 27.8841 42.6078 27.8841 46.2566C27.8841 47.7867 28.2372 49.3168 28.9434 50.7292C28.9434 50.8469 29.0612 50.9646 29.0612 51.0823C29.0612 51.3177 28.9434 51.4354 28.708 51.4354C25.6478 51.5531 24 49.1991 24 45.9035C24 40.96 28.1195 36.7228 33.5338 36.7228C35.417 36.7228 36.7117 37.1936 39.0657 38.0175C41.3021 38.8414 42.8322 39.4299 44.7154 39.4299C45.3039 39.4299 46.0101 39.4299 46.834 39.3122H46.9517C47.1871 39.3122 47.3048 39.4299 47.0694 39.783C46.2455 40.96 45.4216 42.6078 44.3623 44.9619L39.8897 55.0842H49.188L55.897 40.0184C56.0147 39.783 56.1324 39.6653 56.3678 39.6653H61.429C61.7821 39.6653 61.8998 39.9007 61.7821 40.2538L50.9536 64.618C50.1297 66.3835 49.7766 67.7959 49.7766 68.8552C49.7766 69.9145 50.1297 70.503 50.9536 70.503C52.9545 70.503 56.9563 66.7366 59.3103 61.5577C59.428 61.2046 59.6634 61.0869 60.0166 61.0869C60.7228 61.0869 61.429 61.7931 61.0759 62.4993C58.251 68.9729 52.4837 74.3871 47.6579 74.3871C45.0685 74.3871 43.5384 72.9747 43.5384 70.1499C43.5384 68.3844 44.1269 66.1481 45.3039 63.4409Z" fill="black"/>
<path d="M70.9628 51.5531C75.2 51.5531 77.2009 54.2602 77.2009 58.3798C77.2009 60.6161 76.6124 62.9701 75.5531 65.2064H75.7885C77.7894 65.2064 79.5549 64.0294 80.732 61.6754C80.8497 61.3223 81.0851 61.2046 81.4382 61.2046C82.1444 61.2046 82.7329 61.9108 82.4975 62.617C80.9674 66.3835 78.0248 67.9136 75.3177 67.9136C74.8469 67.9136 74.3761 67.9136 74.023 67.7959C71.5513 71.68 67.7848 74.1517 63.6653 74.1517C59.428 74.1517 57.3094 71.4446 57.3094 67.4428C57.3094 60.7338 63.783 51.2 70.9628 51.5531ZM71.3159 64.0294C71.3159 61.9108 72.6106 59.6745 74.3761 58.8506C74.3761 58.6152 74.3761 58.3798 74.3761 58.0267C74.3761 55.9081 73.5522 54.4956 71.7867 54.4956C67.9025 54.1425 63.0768 62.4993 63.1945 67.0897C63.1945 69.2083 64.1361 70.503 66.0193 70.503C68.1379 70.503 70.1388 68.7375 71.7867 66.1481C71.5513 65.4418 71.3159 64.7356 71.3159 64.0294Z" fill="black"/>
<path d="M104.272 65.3241L106.862 59.6745C107.332 58.6152 107.568 57.6736 107.568 56.9674C107.568 55.908 107.097 55.4372 106.038 55.4372C103.448 55.4372 100.741 58.6152 97.7986 64.8533L94.1499 72.9747C94.0322 73.2101 93.9145 73.3278 93.6791 73.3278H88.8533C88.5002 73.3278 88.3825 73.0924 88.5002 72.7393L94.2676 59.6745C94.7384 58.6152 94.9738 57.6736 94.9738 56.8497C94.9738 55.908 94.503 55.4372 93.4437 55.4372C90.8543 55.4372 87.6763 58.9683 85.0869 64.8533L81.6736 72.9747C81.5559 73.2101 81.4382 73.3278 81.2028 73.3278H76.377C76.0239 73.3278 75.9062 73.0924 76.0239 72.7393L80.9674 61.5577L84.8515 52.7301C84.9692 52.4947 85.0869 52.377 85.3223 52.377H89.4418C89.7949 52.377 89.9126 52.6124 89.7949 52.9655L88.971 55.908C91.5605 53.0832 94.503 51.5531 97.2101 51.5531C99.9172 51.5531 101.447 52.8478 101.447 55.2018C101.447 55.5549 101.447 55.7903 101.447 55.908C104.037 53.0832 106.979 51.5531 109.804 51.5531C112.511 51.5531 114.041 52.9655 114.041 55.3195C114.041 56.6143 113.688 58.1444 112.864 59.7922L110.51 64.7356C109.804 66.148 109.451 67.3251 109.451 68.2667C109.451 69.326 109.922 70.0322 110.746 70.0322C112.511 70.0322 114.865 66.972 117.337 61.5577C117.455 61.2046 117.69 61.0869 118.043 61.0869C118.749 61.0869 119.456 61.7931 119.103 62.4993C116.042 69.5614 111.805 74.1517 107.45 74.1517C104.743 74.1517 103.095 72.5039 103.095 69.9145C103.095 68.3844 103.448 66.972 104.272 65.3241Z" fill="black"/>
<path d="M129.343 51.5531C132.756 51.5531 134.757 53.3186 134.757 55.9081C134.757 60.1453 129.696 65.3241 121.103 66.2658C121.103 66.3835 121.103 66.6189 121.103 66.972C121.103 69.4437 122.398 71.0915 125.223 71.0915C127.695 71.0915 129.931 70.1499 132.167 68.3844C134.404 66.6189 136.051 64.2648 137.228 61.6754C137.346 61.3223 137.582 61.2046 137.935 61.2046C138.641 61.2046 139.347 61.9108 138.994 62.617C137.464 66.1481 135.228 68.9729 132.285 71.2092C129.343 73.3278 126.282 74.3871 122.869 74.3871C117.926 74.3871 115.454 71.5623 115.454 67.3251C115.218 60.7338 122.163 51.2 129.343 51.5531ZM129.46 54.0248C126.753 54.0248 122.987 59.086 121.574 63.9117C127.812 63.0878 131.343 58.8506 131.343 56.1435C131.461 54.8487 130.637 54.0248 129.46 54.0248Z" fill="black"/>
<path d="M137.464 72.9747C137.346 73.2101 137.111 73.3278 136.875 73.3278H132.638C132.285 73.3278 132.167 73.0924 132.285 72.7393L137.229 61.5577L146.762 39.9007C146.88 39.6653 146.998 39.5476 147.233 39.5476H152.059C152.412 39.5476 152.53 39.783 152.412 40.1361L146.527 53.4363C148.292 52.1416 150.058 51.4354 151.941 51.4354C155.59 51.4354 157.355 53.9071 157.355 57.6736C157.355 61.5577 155.472 66.2658 152.647 69.6791C156.649 67.9136 159.709 64.9711 161.24 61.5577C161.357 61.2046 161.593 61.0869 161.946 61.0869C162.652 61.0869 163.358 61.7931 163.005 62.4993C159.474 70.2676 151.588 74.3872 144.173 74.3872C141.348 74.3872 139.583 73.3278 138.641 71.2092L137.464 72.9747ZM149.823 54.378C147.469 54.378 144.761 57.5559 142.525 62.617L140.406 67.5605C140.76 69.5614 141.701 70.6207 143.467 70.6207C144.761 70.6207 145.938 69.9145 147.351 68.2667C148.646 66.7366 149.823 64.8534 150.646 62.7347C151.588 60.6161 151.941 58.7329 151.941 57.2028C151.823 55.555 151.117 54.378 149.823 54.378Z" fill="black"/>
<path d="M166.889 65.3242L171.244 55.555C170.538 55.6727 169.714 55.6727 169.126 55.6727C168.066 55.6727 167.125 55.555 166.183 55.3196L163.005 62.4994C162.887 62.7348 162.77 62.8525 162.417 62.8525C161.71 62.8525 161.004 62.264 161.24 61.6754C163.358 57.0851 164.3 54.0249 164.3 50.6115C164.3 50.3761 164.417 50.1407 164.653 50.023C165.006 49.9053 165.359 49.9053 165.712 49.9053C166.889 49.9053 167.595 50.6115 167.595 51.7886C167.595 52.1417 167.595 52.4948 167.478 52.8479C168.419 53.0833 169.361 53.201 170.303 53.201C172.068 53.201 174.187 52.8479 176.541 52.3771H176.658C176.894 52.3771 177.011 52.4948 177.129 52.6125L177.718 53.6718C177.835 53.9072 177.835 54.1426 177.718 54.378L173.127 64.7357C172.421 66.2658 172.068 67.5605 172.068 68.3844C172.068 69.4437 172.539 70.0322 173.363 70.0322C175.128 70.0322 177.365 66.972 179.954 61.5577C180.072 61.2046 180.307 61.0869 180.66 61.0869C181.366 61.0869 182.073 61.7931 181.72 62.4994C178.424 69.5614 174.304 74.1518 169.949 74.1518C167.242 74.1518 165.712 72.6217 165.712 69.9145C165.712 68.6198 166.065 67.0897 166.889 65.3242Z" fill="black"/>
<path d="M191.96 51.5531C195.373 51.5531 197.374 53.3186 197.374 55.9081C197.374 60.1453 192.313 65.3241 183.72 66.2658C183.72 66.3835 183.72 66.6189 183.72 66.972C183.72 69.4437 185.015 71.0915 187.84 71.0915C190.312 71.0915 192.548 70.1499 194.784 68.3844C197.021 66.6189 198.669 64.2648 199.846 61.6754C199.963 61.3223 200.199 61.2046 200.552 61.2046C201.258 61.2046 201.964 61.9108 201.611 62.617C200.081 66.1481 197.845 68.9729 194.902 71.2092C191.96 73.3278 188.899 74.3871 185.486 74.3871C180.543 74.3871 178.071 71.5623 178.071 67.3251C177.835 60.7338 184.662 51.2 191.96 51.5531ZM192.077 54.0248C189.37 54.0248 185.604 59.086 184.191 63.9117C190.429 63.0878 193.96 58.8506 193.96 56.1435C193.96 54.8487 193.137 54.0248 192.077 54.0248Z" fill="black"/>
<path d="M199.728 61.5577L203.259 52.7301C203.377 52.4947 203.494 52.377 203.73 52.377H208.555C208.909 52.377 209.026 52.6124 208.909 52.9655L205.495 61.5577C204.436 64.2649 203.847 66.3835 203.847 67.9136C203.847 69.5614 204.436 70.3853 205.613 70.3853C207.732 70.3853 210.203 67.2074 212.44 61.44L215.971 52.6124C216.088 52.377 216.206 52.2593 216.441 52.2593H221.267C221.62 52.2593 221.738 52.4947 221.62 52.8478L218.207 61.44C217.148 64.1472 216.559 66.2658 216.559 67.7959C216.559 69.4437 217.148 70.2676 218.207 70.2676C219.149 70.2676 220.326 69.4437 221.738 67.7959C223.268 66.1481 224.445 64.2649 225.504 62.4993C227.035 59.4391 227.976 55.7904 227.741 53.4364V53.3187C227.741 53.0832 227.741 52.9656 227.976 52.8478C228.565 52.1416 229.389 51.6708 230.212 51.6708C231.272 51.6708 231.86 52.377 231.86 53.7895C231.86 55.7904 230.919 58.4975 229.153 61.7931C227.388 65.0888 225.151 68.0313 222.562 70.6207C220.09 73.0924 217.736 74.3872 215.617 74.3872C213.028 74.3872 211.38 72.5039 211.027 69.4437C208.555 72.5039 205.613 74.3872 203.023 74.3872C199.963 74.3872 198.198 71.9154 198.198 68.149C198.315 66.1481 198.786 64.0295 199.728 61.5577Z" fill="black"/>
<path d="M142.76 39.5476H64.96V41.4308H142.76V39.5476Z" fill="black"/>
<path d="M232.096 39.5476H156.531V41.4308H232.096V39.5476Z" fill="black"/>
<path d="M166.771 80.5076H91.2074V82.3908H166.771V80.5076Z" fill="black"/>
<path d="M82.3549 95.1025C82.8257 95.1025 83.2965 95.1025 83.6496 95.2202C84.0028 95.3379 84.5913 95.4556 85.0621 95.691V97.1035C84.5913 96.8681 84.1205 96.6327 83.6496 96.5149C83.2965 96.5149 82.9434 96.5149 82.4726 96.5149C81.8841 96.5149 81.4133 96.6327 80.9425 96.8681C80.4717 97.1035 80.1186 97.4566 79.8832 97.8097C79.6478 98.2805 79.5301 98.7513 79.5301 99.2221C79.5301 99.8106 79.6478 100.281 79.8832 100.634C80.1186 100.988 80.4717 101.341 80.9425 101.576C81.4133 101.812 81.8841 101.929 82.4726 101.929C82.9434 101.929 83.2965 101.812 83.7673 101.694C84.1205 101.576 84.709 101.341 85.2975 100.988V102.4C84.8267 102.635 84.3559 102.871 83.8851 102.989C83.4143 103.106 82.9434 103.106 82.3549 103.106C81.531 103.106 80.7071 102.989 80.1186 102.635C79.5301 102.282 78.9416 101.812 78.5885 101.223C78.2354 100.634 78 99.9283 78 99.1044C78 98.2805 78.2354 97.5743 78.5885 96.8681C78.9416 96.2796 79.5301 95.691 80.2363 95.3379C80.7071 95.3379 81.531 95.1025 82.3549 95.1025Z" fill="black"/>
<path d="M91.5356 95.1025C92.3595 95.1025 93.0657 95.2202 93.7719 95.5733C94.4782 95.9264 94.949 96.3972 95.4198 97.1035C95.7729 97.692 96.0083 98.5159 96.0083 99.2221C96.0083 99.9283 95.7729 100.634 95.4198 101.341C95.0667 101.929 94.4782 102.518 93.8897 102.871C93.1834 103.224 92.4772 103.459 91.6533 103.459C90.8294 103.459 90.1232 103.224 89.417 102.871C88.7108 102.518 88.24 102.047 87.7692 101.341C87.4161 100.752 87.1807 100.046 87.1807 99.2221C87.1807 98.5159 87.4161 97.8097 87.7692 97.1035C88.1223 96.3972 88.7108 95.9264 89.2993 95.5733C90.0055 95.3379 90.7117 95.1025 91.5356 95.1025ZM88.7108 99.2221C88.7108 99.8106 88.8285 100.281 89.0639 100.634C89.2993 100.988 89.6524 101.341 90.1232 101.576C90.594 101.812 91.0648 101.929 91.5356 101.929C92.3595 101.929 93.0657 101.694 93.5365 101.105C94.1251 100.634 94.3605 99.9283 94.3605 99.1044C94.3605 98.5159 94.2428 98.0451 94.0074 97.692C93.772 97.2212 93.4188 96.9858 92.948 96.7503C92.4772 96.5149 92.0064 96.3972 91.5356 96.3972C91.0648 96.3972 90.4763 96.5149 90.1232 96.7503C89.6524 96.9858 89.2993 97.3389 89.0639 97.692C88.8285 98.2805 88.7108 98.7513 88.7108 99.2221Z" fill="black"/>
<path d="M99.7747 95.2202L102.364 98.3981L104.954 95.2202H106.366V103.224H104.836V97.5742L102.482 100.399H102.246L99.8924 97.5742V103.224H98.3623V95.2202H99.7747Z" fill="black"/>
<path d="M112.133 95.2202C112.84 95.2202 113.546 95.4556 114.017 95.9264C114.487 96.3972 114.723 96.868 114.723 97.5742C114.723 98.2804 114.487 98.869 114.017 99.2221C113.546 99.5752 112.957 99.8106 112.133 99.8106H110.603V103.224H109.073V95.2202H112.133ZM111.78 98.6335C112.251 98.6335 112.486 98.5158 112.722 98.3981C112.957 98.1627 113.075 97.9273 113.075 97.5742C113.075 96.868 112.604 96.5149 111.663 96.5149H110.603V98.7512H111.78V98.6335Z" fill="black"/>
<path d="M118.254 95.2202V99.9283C118.254 100.399 118.371 100.752 118.489 101.105C118.607 101.341 118.842 101.576 119.195 101.811C119.549 102.047 119.902 102.047 120.372 102.047C120.843 102.047 121.196 101.929 121.549 101.811C121.903 101.694 122.138 101.341 122.256 101.105C122.373 100.752 122.491 100.399 122.491 99.8106V95.2202H124.021V100.046C124.021 101.105 123.668 101.929 123.08 102.518C122.491 103.106 121.549 103.342 120.372 103.342C119.666 103.342 118.96 103.224 118.489 102.988C117.901 102.753 117.548 102.4 117.194 101.811C116.959 101.341 116.724 100.752 116.724 100.046V95.2202H118.254Z" fill="black"/>
<path d="M133.32 95.2202V96.3972H130.495V103.224H128.965V96.3972H126.14V95.2202H133.32Z" fill="black"/>
<path d="M140.617 95.2202V96.3972H136.968V98.5159H140.499V99.6929H136.968V101.929H140.735V103.106H135.438V95.1025H140.617V95.2202Z" fill="black"/>
<path d="M145.914 95.2202C146.62 95.2202 147.326 95.4556 147.797 95.8087C148.268 96.1618 148.503 96.7503 148.503 97.4565C148.503 97.9273 148.385 98.2804 148.15 98.6335C147.914 98.9867 147.561 99.2221 147.091 99.4575C147.326 99.5752 147.561 99.8106 147.797 100.046C148.032 100.281 148.268 100.634 148.503 101.223C148.974 102.165 149.327 102.871 149.562 103.224H147.797C147.679 103.106 147.561 102.753 147.326 102.4C146.855 101.576 146.502 100.988 146.384 100.634C146.149 100.281 146.031 100.164 145.796 100.046C145.56 99.9283 145.443 99.8106 145.09 99.8106H144.501V103.224H142.971V95.2202H145.914ZM145.56 98.6335C145.914 98.6335 146.267 98.5158 146.502 98.2804C146.737 98.045 146.855 97.8096 146.855 97.4565C146.855 97.1034 146.737 96.868 146.502 96.6326C146.267 96.3972 145.914 96.3972 145.56 96.3972H144.619V98.6335H145.56Z" fill="black"/>
<path d="M159.802 95.1025C160.273 95.1025 160.744 95.1025 161.097 95.2202C161.45 95.3379 162.039 95.4556 162.509 95.691V97.1035C162.039 96.8681 161.568 96.6327 161.097 96.5149C160.626 96.3972 160.273 96.2796 159.802 96.2796C159.214 96.2796 158.743 96.3972 158.272 96.6326C157.801 96.8681 157.448 97.2212 157.213 97.5743C156.977 98.0451 156.86 98.5159 156.86 98.9867C156.86 99.5752 156.977 100.046 157.213 100.399C157.448 100.752 157.801 101.105 158.272 101.341C158.743 101.576 159.214 101.694 159.802 101.694C160.273 101.694 160.626 101.576 161.097 101.458C161.45 101.341 162.039 101.105 162.627 100.752V102.165C162.156 102.4 161.686 102.635 161.215 102.753C160.744 102.871 160.273 102.871 159.685 102.871C158.861 102.871 158.037 102.753 157.448 102.4C156.86 102.047 156.271 101.576 155.918 100.988C155.565 100.399 155.33 99.6929 155.33 98.869C155.33 98.0451 155.565 97.3389 155.918 96.6326C156.271 96.0441 156.86 95.4556 157.566 95.1025C158.154 95.3379 158.978 95.1025 159.802 95.1025Z" fill="black"/>
<path d="M168.983 95.1025C169.807 95.1025 170.513 95.2202 171.219 95.5733C171.926 95.9264 172.396 96.3972 172.867 97.1035C173.22 97.692 173.456 98.5159 173.456 99.2221C173.456 99.9283 173.22 100.634 172.867 101.341C172.514 101.929 171.926 102.518 171.337 102.871C170.631 103.224 169.925 103.459 169.101 103.459C168.277 103.459 167.571 103.224 166.864 102.871C166.158 102.518 165.687 102.047 165.217 101.341C164.863 100.752 164.628 100.046 164.628 99.2221C164.628 98.5159 164.863 97.8097 165.217 97.1035C165.57 96.3972 166.158 95.9264 166.747 95.5733C167.453 95.3379 168.159 95.1025 168.983 95.1025ZM166.158 99.2221C166.158 99.8106 166.276 100.281 166.511 100.634C166.747 100.988 167.1 101.341 167.571 101.576C168.041 101.812 168.512 101.929 168.983 101.929C169.807 101.929 170.513 101.694 170.984 101.105C171.572 100.634 171.808 99.9283 171.808 99.1044C171.808 98.5159 171.69 98.0451 171.455 97.692C171.219 97.2212 170.866 96.9858 170.395 96.7503C169.925 96.5149 169.454 96.3972 168.983 96.3972C168.512 96.3972 167.924 96.5149 167.571 96.7503C167.1 96.9858 166.747 97.3389 166.511 97.692C166.276 98.2805 166.158 98.7513 166.158 99.2221Z" fill="black"/>
<path d="M176.398 101.576C176.634 101.576 176.869 101.694 176.987 101.812C177.222 101.929 177.222 102.165 177.222 102.4C177.222 102.635 177.104 102.871 176.987 102.989C176.869 103.106 176.634 103.224 176.398 103.224C176.163 103.224 175.927 103.106 175.81 102.989C175.692 102.871 175.574 102.635 175.574 102.4C175.574 102.165 175.692 101.929 175.81 101.812C175.927 101.694 176.163 101.576 176.398 101.576Z" fill="black"/>
</g>
<defs>
<clipPath id="clip0_699_2">
<rect width="256" height="144.419" fill="white"/>
</clipPath>
</defs>
</svg>
